General

Format                         : MPEG-4
Format profile                 : Base Media
Codec ID                       : isom
File size                      : 108 MiB
Duration                       : 4mn 14s
Overall bit rate mode          : Variable
Overall bit rate               : 3 567 Kbps
Encoded date                   : UTC 2012-09-28 04:16:03
Tagged date                    : UTC 2012-09-28 04:16:03

Video
ID                             : 1
Format                         : AVC
Format/Info                    : Advanced Video Codec
Format profile                 : High@L3.0
Format settings, CABAC         : Yes
Format settings, ReFrames      : 2 frames
Codec ID                       : avc1
Codec ID/Info                  : Advanced Video Coding
Duration                       : 4mn 14s
Bit rate                       : 3 494 Kbps
Maximum bit rate               : 8 235 Kbps
Width                          : 720 pixels
Height                         : 480 pixels
Display aspect ratio           : 16:9
Original display aspect ratio  : 16:9
Frame rate mode                : Constant
Frame rate                     : 23.976 fps
Standard                       : NTSC
Color space                    : YUV
Chroma subsampling             : 4:2:0
Bit depth                      : 8 bits
Scan type                      : Progressive
Bits/(Pixel*Frame)             : 0.422
Stream size                    : 106 MiB (98%)


Audio
ID                             : 2
Format                         : AAC
Format/Info                    : Advanced Audio Codec
Format profile                 : LC
Codec ID                       : 40
Duration                       : 4mn 14s
Bit rate mode                  : Variable
Bit rate                       : 68.8 Kbps
Maximum bit rate               : 82.8 Kbps
Channel(s)                     : 2 channels
Channel positions              : Front: L R
Sampling rate                  : 44.1 KHz
Compression mode               : Lossy
Stream size                    : 2.08 MiB (2%)